<svg width="264" height="41" viewBox="0 0 264 41" fill="none" xmlns="http://www.w3.org/2000/svg">
<g clip-path="url(#clip0_178_189)">
<path d="M75.5557 33.7513H70.8997L73.2051 27.1767H73.2504L75.5557 33.7513ZM65.2837 39.9153H68.5931L69.9864 36.262H76.4464L77.8157 39.9153H81.3544L75.0997 23.9807H71.4917L65.2837 39.9153Z" fill="#145298"/>
<path d="M92.9957 26.9032C91.9904 26.4699 90.8731 26.2179 89.7544 26.2179C88.6584 26.2179 87.2437 26.6979 87.2437 28.4325C87.2437 31.1952 94.2277 30.0299 94.2277 35.3725C94.2277 38.8645 91.4664 40.1885 88.2477 40.1885C86.5131 40.1885 85.7371 39.9605 84.1611 39.5725L84.4584 36.6965C85.5544 37.2899 86.8091 37.6779 88.0651 37.6779C89.2744 37.6779 90.8957 37.0619 90.8957 35.6232C90.8957 32.5872 83.9104 33.8432 83.9104 28.5699C83.9104 25.0085 86.6731 23.7072 89.4797 23.7072C90.8491 23.7072 92.1277 23.8899 93.2917 24.2779L92.9957 26.9032Z" fill="#145298"/>
<path d="M101.396 26.4921H96.8305V23.9815H109.157V26.4921H104.592V39.9148H101.396V26.4921Z" fill="#145298"/>
<path d="M115.48 26.4921H116.531C118.128 26.4921 119.91 26.6521 119.91 28.5695C119.91 30.5548 118.106 30.7841 116.531 30.7841H115.48V26.4921ZM112.284 39.9148H115.48V33.2948H116.507C117.855 33.2948 118.266 33.7508 118.722 34.9388L120.639 39.9148H124.2L121.643 33.6828C121.324 32.9748 120.822 32.1081 119.955 32.0388V31.9935C121.986 31.7201 123.242 30.1681 123.242 28.2961C123.242 23.8668 119.156 23.9815 115.731 23.9815H112.284V39.9148Z" fill="#145298"/>
<path d="M136.504 33.7513H131.848L134.153 27.1767H134.199L136.504 33.7513ZM126.232 39.9153H129.543L130.935 36.262H137.395L138.764 39.9153H142.303L136.048 23.9807H132.441L126.232 39.9153Z" fill="#145298"/>
<path d="M84.068 7.15602C80.0813 7.43735 72.468 8.62668 66.2413 9.71335C60.0147 10.7987 56.9747 11.5227 54.3573 12.1507C47.4133 13.8133 37 16.776 31.5013 18.5347C26.5827 20.104 13.7267 25.4747 13.3387 25.3933C13.1307 25.3453 12.7107 24.9107 13.3653 24.4733C12.064 25.34 32.2413 7.55335 65.292 3.04402V1.52588e-05H0V35.3893C20.1493 27.3013 42.1933 24.144 65.292 24.1227V15.5827L65.852 15.4333H65.8547C79.0387 10.4733 94.3906 8.48002 119.324 5.83468V5.00002C117.296 5.01601 101.819 5.20802 84.38 7.13335C84.2747 7.14001 84.1747 7.14668 84.068 7.15602Z" fill="#145298"/>
<path d="M119.343 4.52483C119.343 4.52483 103.841 3.2395 84.206 4.7035C78.1113 5.1595 71.618 6.06883 65.6033 7.0955C52.77 9.29283 42.1113 12.0262 42.1113 12.0262C42.1113 12.0262 41.3366 12.0355 42.054 11.5795C43.2113 10.8462 52.6166 6.62883 65.6033 4.0675C68.3966 3.5155 71.3473 3.03817 74.4246 2.6915C74.882 2.63817 74.4246 2.1555 74.4246 2.1555C71.3926 2.32483 68.3606 2.51017 65.5153 2.92083C49.362 5.25417 37.6166 10.1702 30.5566 13.6422C30.0833 13.8742 31.75 12.8262 21.866 18.3088C21.866 18.3088 15.7046 22.4462 15.282 22.8688C14.666 23.4848 20.3473 20.9448 24.362 19.5275C28.0953 18.2128 38.122 15.3515 40.4073 14.6622C42.066 14.1608 47.794 12.9675 53.6806 11.7742C59.298 10.6342 64.6086 9.90083 64.9393 9.87417C65.3486 9.8435 65.2886 9.87417 65.2886 9.87417C65.2886 9.87417 71.4073 8.88483 72.6006 8.6595C74.4486 8.31417 84.586 7.10217 84.6913 7.09417C102.129 5.16883 119.637 4.9995 119.325 4.9995L119.343 4.52483Z" fill="#BCC2DE"/>
<path d="M150.076 23.9713H148.702V25.8032H150.076V23.9713ZM148.702 39.8886H150.076V28.7686H148.702V39.8886Z" fill="#145298"/>
<path d="M153.542 31.3851C153.542 30.5344 153.542 29.6624 153.456 28.7691H154.785V30.7518H154.829C155.286 29.7491 156.116 28.5064 158.426 28.5064C161.174 28.5064 162.221 30.3384 162.221 32.7798V39.8891H160.848V33.1291C160.848 31.0358 160.106 29.6838 158.209 29.6838C155.701 29.6838 154.916 31.8864 154.916 33.7398V39.8891H153.542V31.3851Z" fill="#145298"/>
<path d="M170.463 29.9459H167.934V37.1419C167.934 38.1445 168.305 38.9739 169.417 38.9739C169.939 38.9739 170.289 38.8645 170.681 38.7112L170.769 39.8445C170.441 39.9752 169.766 40.1512 169.089 40.1512C166.647 40.1512 166.561 38.4712 166.561 36.4432V29.9459H164.379V28.7685H166.561V26.0859L167.934 25.6072V28.7685H170.463V29.9459Z" fill="#145298"/>
<path d="M173.602 33.5437C173.602 31.7117 174.845 29.6837 176.873 29.6837C178.922 29.6837 179.708 31.6024 179.708 33.5437H173.602ZM180.384 38.1437C179.73 38.5584 178.269 38.9731 177.265 38.9731C174.868 38.9731 173.602 37.0757 173.602 34.7211H181.213V34.0237C181.213 31.0357 179.926 28.5064 176.786 28.5064C173.973 28.5064 172.098 30.9264 172.098 34.3291C172.098 37.6651 173.472 40.1504 177.157 40.1504C178.181 40.1504 179.424 39.9317 180.384 39.5397V38.1437Z" fill="#145298"/>
<path d="M183.829 31.2539C183.829 30.0326 183.829 29.5752 183.741 28.7685H185.116V30.9046H185.159C185.661 29.6619 186.599 28.5072 188.016 28.5072C188.343 28.5072 188.735 28.5726 188.975 28.6365V30.0766C188.692 29.9899 188.321 29.9459 187.972 29.9459C185.792 29.9459 185.203 32.3872 185.203 34.3939V39.8885H183.829V31.2539Z" fill="#145298"/>
<path d="M191.478 31.3851C191.478 30.5344 191.478 29.6624 191.392 28.7691H192.721V30.7518H192.765C193.222 29.7491 194.052 28.5064 196.362 28.5064C199.11 28.5064 200.157 30.3384 200.157 32.7798V39.8891H198.784V33.1291C198.784 31.0358 198.042 29.6838 196.145 29.6838C193.637 29.6838 192.852 31.8864 192.852 33.7398V39.8891H191.478V31.3851Z" fill="#145298"/>
<path d="M209.86 34.9608C209.86 36.1608 209.795 38.9728 206.568 38.9728C205.303 38.9728 204.256 38.4275 204.256 36.9661C204.256 34.5248 207.091 34.2848 209.468 34.2848H209.86V34.9608ZM209.991 39.8888H211.343C211.233 39.1248 211.233 38.4501 211.233 37.5555V32.6501C211.233 29.7501 210.079 28.5061 207.331 28.5061C206.349 28.5061 204.911 28.8555 204.06 29.2701V30.5995C205.085 29.9461 206.175 29.6835 207.331 29.6835C209.184 29.6835 209.86 30.6435 209.86 32.5408V33.1075H209.599C206.72 33.1075 202.752 33.2821 202.752 37.0101C202.752 38.0141 203.253 40.1501 206.415 40.1501C207.788 40.1501 209.337 39.4301 209.947 38.1008H209.991V39.8888Z" fill="#145298"/>
<path d="M219.301 29.9459H216.772V37.1419C216.772 38.1445 217.143 38.9739 218.255 38.9739C218.779 38.9739 219.127 38.8645 219.52 38.7112L219.607 39.8445C219.28 39.9752 218.604 40.1512 217.928 40.1512C215.485 40.1512 215.399 38.4712 215.399 36.4432V29.9459H213.219V28.7685H215.399V26.0859L216.772 25.6072V28.7685H219.301V29.9459Z" fill="#145298"/>
<path d="M221.765 28.7686H223.138V39.8886H221.765V28.7686ZM223.138 25.8032H221.765V23.9713H223.138V25.8032Z" fill="#145298"/>
<path d="M227.26 34.3285C227.26 31.7552 228.547 29.6845 230.945 29.6845C233.344 29.6845 234.629 31.7552 234.629 34.3285C234.629 36.9019 233.344 38.9739 230.945 38.9739C228.547 38.9739 227.26 36.9019 227.26 34.3285ZM225.755 34.3285C225.755 37.3592 227.347 40.1512 230.945 40.1512C234.543 40.1512 236.135 37.3592 236.135 34.3285C236.135 31.2979 234.543 28.5072 230.945 28.5072C227.347 28.5072 225.755 31.2979 225.755 34.3285Z" fill="#145298"/>
<path d="M238.729 31.3851C238.729 30.5344 238.729 29.6624 238.641 28.7691H239.972V30.7518H240.016C240.473 29.7491 241.303 28.5064 243.613 28.5064C246.361 28.5064 247.408 30.3384 247.408 32.7798V39.8891H246.035V33.1291C246.035 31.0358 245.293 29.6838 243.395 29.6838C240.888 29.6838 240.103 31.8864 240.103 33.7398V39.8891H238.729V31.3851Z" fill="#145298"/>
<path d="M257.11 34.9608C257.11 36.1608 257.045 38.9728 253.818 38.9728C252.553 38.9728 251.506 38.4275 251.506 36.9661C251.506 34.5248 254.341 34.2848 256.718 34.2848H257.11V34.9608ZM257.241 39.8888H258.593C258.485 39.1248 258.485 38.4501 258.485 37.5555V32.6501C258.485 29.7501 257.329 28.5061 254.581 28.5061C253.599 28.5061 252.161 28.8555 251.31 29.2701V30.5995C252.335 29.9461 253.425 29.6835 254.581 29.6835C256.434 29.6835 257.11 30.6435 257.11 32.5408V33.1075H256.849C253.97 33.1075 250.002 33.2821 250.002 37.0101C250.002 38.0141 250.503 40.1501 253.665 40.1501C255.039 40.1501 256.587 39.4301 257.198 38.1008H257.241V39.8888Z" fill="#145298"/>
<path d="M261.754 23.5352H263.128V39.8885H261.754V23.5352Z" fill="#145298"/>
</g>
<defs>
<clipPath id="clip0_178_189">
<rect width="263.128" height="40.1885" fill="white"/>
</clipPath>
</defs>
</svg>
