<svg width="33" height="33" viewBox="0 0 33 33" fill="none" xmlns="http://www.w3.org/2000/svg">
<path d="M8.23389 4.52441C8.76192 3.96281 9.64288 3.93907 10.2007 4.4707L14.3032 8.82324C14.8116 9.36308 14.8121 10.2097 14.3042 10.75L12.3208 12.8594C13.5662 16.6665 16.3509 19.7121 19.8804 21.1523L20.2759 21.3057L22.1558 19.3066C22.6838 18.7451 23.5638 18.7204 24.1216 19.252L28.2241 23.6055C28.7325 24.1453 28.733 24.991 28.2251 25.5312L27.2046 26.6162C25.3412 28.5981 22.5036 29.1568 20.0112 28.0322C16.4883 26.4427 13.6454 24.5002 11.4829 22.2041C9.32034 19.9079 7.48949 16.8882 5.99072 13.1455C4.9729 10.6038 5.41456 7.72205 7.1001 5.74219L7.31689 5.5L8.23389 4.52441Z" fill="#FACC15"/>
</svg>
