<svg width="14" height="14" viewBox="0 0 14 14" fill="none" xmlns="http://www.w3.org/2000/svg">
<path d="M6.85701 0C3.07002 0 0 3.07002 0 6.85701C0 10.0727 2.21399 12.771 5.20063 13.5121V8.95251H3.78671V6.85701H5.20063V5.95408C5.20063 3.62022 6.25688 2.53846 8.54822 2.53846C8.98268 2.53846 9.73229 2.62376 10.0389 2.70879V4.60818C9.87711 4.59118 9.59597 4.58267 9.24681 4.58267C8.12253 4.58267 7.68807 5.00863 7.68807 6.1159V6.85701H9.92785L9.54303 8.95251H7.68807V13.6638C11.0834 13.2538 13.7143 10.3629 13.7143 6.85701C13.714 3.07002 10.644 0 6.85701 0Z" fill="#101828"/>
</svg>
