<svg width="14" height="14" viewBox="0 0 14 14" fill="none" xmlns="http://www.w3.org/2000/svg">
<g clip-path="url(#clip0_1_828)">
<path d="M6.85714 1.23482C8.68929 1.23482 8.90625 1.24286 9.62679 1.275C10.2964 1.30446 10.658 1.41696 10.8991 1.51071C11.2179 1.63393 11.4482 1.78393 11.6866 2.02232C11.9277 2.26339 12.075 2.49107 12.1982 2.80982C12.292 3.05089 12.4045 3.41518 12.4339 4.08214C12.4661 4.80536 12.4741 5.02232 12.4741 6.85179C12.4741 8.68393 12.4661 8.90089 12.4339 9.62143C12.4045 10.2911 12.292 10.6527 12.1982 10.8938C12.075 11.2125 11.925 11.4429 11.6866 11.6812C11.4455 11.9223 11.2179 12.0696 10.8991 12.1929C10.658 12.2866 10.2937 12.3991 9.62679 12.4286C8.90357 12.4607 8.68661 12.4687 6.85714 12.4687C5.025 12.4687 4.80804 12.4607 4.0875 12.4286C3.41786 12.3991 3.05625 12.2866 2.81518 12.1929C2.49643 12.0696 2.26607 11.9196 2.02768 11.6812C1.78661 11.4402 1.63929 11.2125 1.51607 10.8938C1.42232 10.6527 1.30982 10.2884 1.28036 9.62143C1.24821 8.89821 1.24018 8.68125 1.24018 6.85179C1.24018 5.01964 1.24821 4.80268 1.28036 4.08214C1.30982 3.4125 1.42232 3.05089 1.51607 2.80982C1.63929 2.49107 1.78929 2.26071 2.02768 2.02232C2.26875 1.78125 2.49643 1.63393 2.81518 1.51071C3.05625 1.41696 3.42054 1.30446 4.0875 1.275C4.80804 1.24286 5.025 1.23482 6.85714 1.23482ZM6.85714 0C4.99554 0 4.7625 0.00803571 4.03125 0.0401786C3.30268 0.0723214 2.80179 0.190179 2.36786 0.358929C1.91518 0.535714 1.53214 0.76875 1.15179 1.15179C0.76875 1.53214 0.535714 1.91518 0.358929 2.36518C0.190179 2.80179 0.0723214 3.3 0.0401786 4.02857C0.00803571 4.7625 0 4.99554 0 6.85714C0 8.71875 0.00803571 8.95179 0.0401786 9.68303C0.0723214 10.4116 0.190179 10.9125 0.358929 11.3464C0.535714 11.7991 0.76875 12.1821 1.15179 12.5625C1.53214 12.9429 1.91518 13.1786 2.36518 13.3527C2.80179 13.5214 3.3 13.6393 4.02857 13.6714C4.75982 13.7036 4.99286 13.7116 6.85446 13.7116C8.71607 13.7116 8.94911 13.7036 9.68036 13.6714C10.4089 13.6393 10.9098 13.5214 11.3438 13.3527C11.7938 13.1786 12.1768 12.9429 12.5571 12.5625C12.9375 12.1821 13.1732 11.7991 13.3473 11.3491C13.5161 10.9125 13.6339 10.4143 13.6661 9.68571C13.6982 8.95446 13.7063 8.72143 13.7063 6.85982C13.7063 4.99821 13.6982 4.76518 13.6661 4.03393C13.6339 3.30536 13.5161 2.80446 13.3473 2.37054C13.1786 1.91518 12.9455 1.53214 12.5625 1.15179C12.1821 0.771429 11.7991 0.535714 11.3491 0.361607C10.9125 0.192857 10.4143 0.075 9.68571 0.0428571C8.95179 0.00803572 8.71875 0 6.85714 0Z" fill="#101828"/>
<path d="M6.85704 3.33472C4.9124 3.33472 3.33472 4.9124 3.33472 6.85704C3.33472 8.80168 4.9124 10.3794 6.85704 10.3794C8.80168 10.3794 10.3794 8.80168 10.3794 6.85704C10.3794 4.9124 8.80168 3.33472 6.85704 3.33472ZM6.85704 9.14186C5.59543 9.14186 4.57222 8.11865 4.57222 6.85704C4.57222 5.59543 5.59543 4.57222 6.85704 4.57222C8.11865 4.57222 9.14186 5.59543 9.14186 6.85704C9.14186 8.11865 8.11865 9.14186 6.85704 9.14186Z" fill="#101828"/>
<path d="M11.3412 3.19561C11.3412 3.65097 10.9715 4.01794 10.5189 4.01794C10.0635 4.01794 9.69653 3.64829 9.69653 3.19561C9.69653 2.74026 10.0662 2.37329 10.5189 2.37329C10.9715 2.37329 11.3412 2.74293 11.3412 3.19561Z" fill="#101828"/>
</g>
<defs>
<clipPath id="clip0_1_828">
<rect width="13.7143" height="13.7143" fill="white"/>
</clipPath>
</defs>
</svg>
