<svg width="14" height="14" viewBox="0 0 14 14" fill="none" xmlns="http://www.w3.org/2000/svg">
<path d="M0.482228 13.7143C0.354683 13.7143 0.233497 13.6633 0.144215 13.574C0.0230475 13.4529 -0.0279393 13.2744 0.0167014 13.1086L0.820241 10.1056C0.284552 9.11098 0.00393448 7.98884 0.00393448 6.85395C0.00393448 3.07312 3.07777 0 6.85948 0C10.6412 0 13.715 3.07312 13.715 6.85395C13.715 10.6348 10.6412 13.7079 6.85948 13.7079C5.70519 13.7079 4.57644 13.421 3.56883 12.8727L0.609781 13.6952C0.56514 13.7079 0.526869 13.7143 0.482228 13.7143ZM3.63259 11.8844C3.71549 11.8844 3.7984 11.91 3.87493 11.9482C4.77412 12.4774 5.80723 12.7579 6.85948 12.7579C10.1119 12.7579 12.7584 10.112 12.7584 6.86033C12.7584 3.60869 10.1119 0.962747 6.85948 0.962747C3.60708 0.962747 0.960522 3.60869 0.960522 6.86033C0.960522 7.89958 1.23474 8.91333 1.75129 9.80594C1.81507 9.91432 1.83421 10.0482 1.80232 10.1694L1.1646 12.5539L3.51142 11.9036C3.54968 11.8908 3.59433 11.8844 3.63259 11.8844Z" fill="#101828"/>
<path d="M8.48871 10.2856C8.11967 10.2856 7.73872 10.2024 7.33991 10.0299C6.96491 9.86943 6.58992 9.6554 6.22682 9.38786C5.86968 9.12627 5.5185 8.829 5.19707 8.50795C4.87564 8.18096 4.578 7.83615 4.3161 7.47943C4.04824 7.10488 3.83395 6.73626 3.67919 6.3736C3.51252 5.98121 3.4292 5.59477 3.4292 5.22616C3.4292 4.96457 3.47681 4.71486 3.56609 4.483C3.66133 4.23924 3.8161 4.01926 4.01848 3.82901C4.39943 3.45446 4.94707 3.31773 5.38159 3.52581C5.5304 3.59121 5.6554 3.69823 5.75064 3.84091L6.4411 4.80998C6.51253 4.90511 6.56611 5.00618 6.60778 5.10725C6.6554 5.22615 6.68516 5.34507 6.68516 5.45803C6.68516 5.61261 6.64349 5.76719 6.56015 5.90393C6.50658 5.99311 6.42919 6.10013 6.328 6.2012L6.25062 6.28442C6.28633 6.33198 6.32799 6.39143 6.39347 6.46277C6.51847 6.60546 6.65537 6.76004 6.80418 6.90867C6.95299 7.05136 7.1018 7.19404 7.25061 7.3189C7.32204 7.37835 7.38159 7.42592 7.42921 7.45564L7.51252 7.3724C7.61966 7.26539 7.72683 7.18217 7.83397 7.12866C8.0304 7.00381 8.33395 6.97408 8.60181 7.08704C8.69705 7.12271 8.79228 7.17621 8.89347 7.24756L9.88754 7.9491C10.0244 8.04422 10.1316 8.17502 10.203 8.32365C10.2625 8.47228 10.2863 8.60309 10.2863 8.73983C10.2863 8.91819 10.2447 9.0906 10.1673 9.25707C10.0899 9.41164 10.0006 9.54839 9.89347 9.67324C9.70299 9.88133 9.48277 10.0359 9.24468 10.137C9.00658 10.238 8.75062 10.2856 8.48871 10.2856ZM4.94705 4.32841C4.91133 4.32841 4.79232 4.32841 4.64351 4.47705C4.53041 4.58406 4.45301 4.69703 4.39944 4.82188C4.34587 4.94673 4.32205 5.08942 4.32205 5.23211C4.32205 5.48181 4.38157 5.74934 4.50062 6.03471C4.62562 6.33197 4.81016 6.64709 5.03635 6.96219C5.26849 7.27729 5.5304 7.59239 5.82206 7.88371C6.11373 8.16908 6.42325 8.43661 6.74467 8.67442C7.0542 8.90034 7.36968 9.0787 7.68516 9.21545C8.13754 9.41164 8.55419 9.45921 8.89347 9.31652C9.01252 9.26896 9.11966 9.18573 9.2268 9.07872C9.28037 9.01926 9.32206 8.9598 9.35777 8.88251C9.37563 8.84089 9.38753 8.79333 9.38753 8.75171C9.38753 8.73982 9.38751 8.722 9.36965 8.68632L8.37562 7.99667C8.33395 7.96694 8.29228 7.94315 8.25656 7.93126C8.23275 7.94315 8.19706 7.96099 8.13159 8.02639L7.90539 8.25231C7.73277 8.42472 7.45897 8.47228 7.23873 8.39499L7.13159 8.34744C6.99469 8.27609 6.83991 8.16909 6.66729 8.02045C6.50062 7.87777 6.33993 7.72912 6.16731 7.56265C6.00065 7.39024 5.85182 7.22972 5.70897 7.06325C5.55421 6.87895 5.44706 6.73032 5.37564 6.60547L5.31017 6.45089C5.29231 6.39144 5.28634 6.32604 5.28634 6.26659C5.28634 6.10012 5.34588 5.95148 5.45898 5.83257L5.68517 5.60072C5.75065 5.53532 5.77445 5.49965 5.78635 5.47587C5.76849 5.43425 5.74469 5.39857 5.71493 5.35696L5.01847 4.37599L4.94705 4.32841Z" fill="#101828"/>
</svg>
