<svg width="20" height="20" viewBox="0 0 20 20" fill="none" xmlns="http://www.w3.org/2000/svg">
<path d="M17.0016 2.90805C15.1342 1.03112 12.6443 0 9.99285 0C4.53313 0 0.0855308 4.44761 0.0807791 9.90734C0.0807791 11.656 0.536944 13.3571 1.40176 14.8634L0 20L5.2554 18.622C6.70467 19.4108 8.33451 19.8289 9.99285 19.8289H9.99761C15.4573 19.8289 19.9049 15.3813 19.9097 9.91685C19.9049 7.27014 18.8738 4.78023 17.0016 2.90805ZM9.99285 18.1516C8.51032 18.1516 7.06105 17.7524 5.79709 17.0017L5.49773 16.8211L2.38061 17.6384L3.21216 14.5973L3.01734 14.2837C2.19054 12.9722 1.75813 11.4564 1.75813 9.90259C1.75813 5.36945 5.45497 1.67261 9.99761 1.67261C12.1976 1.67261 14.2646 2.53267 15.8232 4.08648C17.377 5.64505 18.2323 7.71205 18.2323 9.91209C18.2276 14.4595 14.5307 18.1516 9.99285 18.1516ZM14.5117 11.9838C14.2646 11.8603 13.0482 11.2616 12.8201 11.1761C12.592 11.0953 12.4257 11.0525 12.2642 11.2996C12.0979 11.5467 11.6227 12.1074 11.4801 12.2689C11.3376 12.4353 11.1903 12.4543 10.9432 12.3307C10.6961 12.2072 9.89782 11.9458 8.95223 11.1C8.21571 10.4443 7.72153 9.63174 7.57423 9.38465C7.43168 9.13756 7.55998 9.00451 7.68352 8.88097C7.79281 8.77168 7.93061 8.59111 8.05415 8.44856C8.1777 8.30601 8.22046 8.20147 8.30124 8.03516C8.38202 7.86885 8.34401 7.7263 8.28224 7.60276C8.22046 7.47921 7.72629 6.25802 7.51721 5.76384C7.31764 5.27916 7.11332 5.34569 6.96126 5.34094C6.81871 5.33143 6.6524 5.33143 6.48609 5.33143C6.31978 5.33143 6.05368 5.3932 5.8256 5.64029C5.59752 5.88738 4.96079 6.4861 4.96079 7.70729C4.96079 8.92849 5.84936 10.1022 5.9729 10.2685C6.09645 10.4348 7.71678 12.9342 10.2019 14.0081C10.7911 14.2647 11.2521 14.4167 11.6132 14.5308C12.2072 14.7208 12.7441 14.6923 13.1718 14.6306C13.6469 14.5593 14.6353 14.0318 14.8444 13.4521C15.0487 12.8724 15.0487 12.3782 14.9869 12.2737C14.9251 12.1692 14.7588 12.1074 14.5117 11.9838Z" fill="black"/>
</svg>
